<?xml version="1.0" encoding="iso-8859-1"?>
<!-- Generator: Adobe Illustrator 19.0.0, SVG Export Plug-In . SVG Version: 6.00 Build 0)  -->
<svg version="1.1" id="Capa_1" xmlns="http://www.w3.org/2000/svg" xmlns:xlink="http://www.w3.org/1999/xlink" x="0px" y="0px"
	 viewBox="0 0 480.259 480.259" style="enable-background:new 0 0 480.259 480.259;" xml:space="preserve">
<g>
	<g>
		<g>
			<path d="M81.898,390.595c16.897-14.231,19.058-39.466,4.826-56.362c-14.231-16.897-39.466-19.058-56.362-4.826
				c-16.897,14.231-19.058,39.466-4.826,56.362c1.468,1.743,3.083,3.358,4.826,4.826C11.807,400.212,0.15,419.36,0.13,440.259v40
				h112v-40C112.109,419.36,100.453,400.212,81.898,390.595z M56.13,336.259c13.255,0,24,10.745,24,24s-10.745,24-24,24
				s-24-10.745-24-24S42.875,336.259,56.13,336.259z M96.13,464.259h-80v-24c0-22.091,17.909-40,40-40s40,17.909,40,40V464.259z"/>
			<path d="M81.898,70.595c16.897-14.231,19.058-39.466,4.826-56.362C72.493-2.664,47.258-4.825,30.362,9.407
				c-16.897,14.231-19.058,39.466-4.826,56.362c1.468,1.743,3.083,3.358,4.826,4.826C11.807,80.212,0.15,99.36,0.13,120.259v40h112
				v-40C112.109,99.36,100.453,80.212,81.898,70.595z M56.13,16.259c13.255,0,24,10.745,24,24s-10.745,24-24,24s-24-10.745-24-24
				S42.875,16.259,56.13,16.259z M96.13,144.259h-80v-24c0-22.091,17.909-40,40-40s40,17.909,40,40V144.259z"/>
			<path d="M449.898,390.595c16.897-14.231,19.058-39.466,4.826-56.362s-39.466-19.058-56.362-4.826
				c-16.897,14.231-19.058,39.466-4.826,56.362c1.468,1.743,3.083,3.358,4.826,4.826c-18.555,9.617-30.211,28.765-30.232,49.664v40
				h112v-40C480.109,419.36,468.453,400.212,449.898,390.595z M424.13,336.259c13.255,0,24,10.745,24,24s-10.745,24-24,24
				s-24-10.745-24-24S410.875,336.259,424.13,336.259z M464.13,464.259h-80v-24c0-22.091,17.909-40,40-40c22.091,0,40,17.909,40,40
				V464.259z"/>
			<path d="M449.898,70.595c16.897-14.231,19.058-39.466,4.826-56.362c-14.231-16.897-39.466-19.058-56.362-4.826
				c-16.897,14.231-19.058,39.466-4.826,56.362c1.468,1.743,3.083,3.358,4.826,4.826c-18.555,9.617-30.211,28.765-30.232,49.664v40
				h112v-40C480.109,99.36,468.453,80.212,449.898,70.595z M424.13,16.259c13.255,0,24,10.745,24,24s-10.745,24-24,24
				s-24-10.745-24-24S410.875,16.259,424.13,16.259z M464.13,144.259h-80v-24c0-22.091,17.909-40,40-40c22.091,0,40,17.909,40,40
				V144.259z"/>
			<rect x="48.13" y="176.259" width="16" height="128"/>
			<rect x="416.13" y="176.259" width="16" height="128"/>
			<rect x="128.13" y="424.259" width="224" height="16"/>
			<rect x="128.13" y="104.259" width="224" height="16"/>
		</g>
	</g>
</g>
<g>
</g>
<g>
</g>
<g>
</g>
<g>
</g>
<g>
</g>
<g>
</g>
<g>
</g>
<g>
</g>
<g>
</g>
<g>
</g>
<g>
</g>
<g>
</g>
<g>
</g>
<g>
</g>
<g>
</g>
</svg>
